<svg width="357" height="99" viewBox="0 0 357 99" fill="none" xmlns="http://www.w3.org/2000/svg">
<path d="M51.5 0C79.9426 0 103 22.9366 103 51.2302C103 72.9831 89.3708 91.569 70.1439 99C42.3664 96.3504 37.3596 72.4078 53.8214 75.2631C67.2337 77.5894 71.3319 70.0745 71.7045 66.0262L53.8214 55.8486C79.6144 57.9012 90.2467 44.6161 92.3389 37.7171C88.6935 41.3434 82.2224 45.2719 79.4424 46.7828C82.6751 44.2513 84.5723 39.6842 85.1169 37.7171C81.1275 42.7118 69.068 48.693 63.5367 51.0591C69.0392 48.3223 70.816 43.5898 71.0167 41.5657C69.727 44.3881 56.3147 52.342 47.6311 51.0591C31.0548 48.3907 29.5472 29.9342 30.8656 21.0394C27.5641 23.2289 27.4265 28.9079 27.7705 31.4736C25.0192 28.0526 25.3631 17.9035 25.879 13.2566C16.3871 28.7881 26.9107 42.8772 33.3589 47.9802C31.0891 47.2276 27.4265 48.9779 25.879 49.9473C27.3922 54.8736 33.9608 57.4166 37.0559 58.0723C23.3954 67.7118 18.4423 82.9399 17.5903 89.7883C6.80876 80.398 0 66.6051 0 51.2302C0 22.9366 23.0574 0 51.5 0Z" fill="#564BFE"/>
<path d="M143.4 77.984H137.576V92H125.48V46.048H143.4C147.411 46.048 150.845 46.6453 153.704 47.84C156.605 48.992 158.824 50.7413 160.36 53.088C161.896 55.392 162.664 58.272 162.664 61.728C162.664 65.184 161.896 68.128 160.36 70.56C158.824 72.9493 156.605 74.784 153.704 76.064C150.845 77.344 147.411 77.984 143.4 77.984ZM143.336 56.224H137.576V67.808H143.336C145.725 67.808 147.539 67.2533 148.776 66.144C150.013 65.0347 150.632 63.6053 150.632 61.856C150.632 60.064 150.013 58.6773 148.776 57.696C147.539 56.7147 145.725 56.224 143.336 56.224ZM182.824 92.576C179.282 92.576 176.168 91.8293 173.48 90.336C170.834 88.8427 168.765 86.752 167.272 84.064C165.821 81.376 165.096 78.2613 165.096 74.72C165.096 71.264 165.842 68.2133 167.336 65.568C168.872 62.88 170.962 60.768 173.608 59.232C176.296 57.696 179.346 56.928 182.76 56.928C185.618 56.928 188.2 57.4613 190.504 58.528C192.808 59.5947 194.728 61.088 196.264 63.008C197.842 64.8853 198.952 67.0827 199.592 69.6C200.232 72.0747 200.296 74.72 199.784 77.536H171.688V70.688H188.072C188.029 68.9387 187.496 67.552 186.472 66.528C185.448 65.504 184.125 64.992 182.503 64.992C181.096 64.992 179.922 65.3547 178.984 66.08C178.088 66.7627 177.405 67.8293 176.936 69.28C176.466 70.7307 176.232 72.5653 176.232 74.784C176.232 76.832 176.466 78.56 176.936 79.968C177.405 81.3333 178.109 82.3573 179.048 83.04C179.986 83.7227 181.16 84.064 182.568 84.064C184.104 84.064 185.384 83.744 186.408 83.104C187.432 82.464 188.178 81.5253 188.648 80.288H199.592C198.525 84.2133 196.541 87.2427 193.64 89.376C190.738 91.5093 187.133 92.576 182.824 92.576ZM216.028 76.128V92H205.084V57.568H215.132V63.648C216.455 61.6427 218.353 60.0853 220.828 58.976C223.345 57.8667 225.969 57.312 228.7 57.312V68.704C226.14 68.448 223.9 68.4267 221.98 68.64C220.103 68.8107 218.631 69.472 217.564 70.624C216.54 71.7333 216.028 73.568 216.028 76.128ZM263.425 80.288C263.425 84.0853 262.059 87.0933 259.329 89.312C256.598 91.5307 252.63 92.64 247.425 92.64C242.262 92.64 238.273 91.5093 235.457 89.248C232.641 86.944 231.062 83.808 230.721 79.84H241.217C241.217 81.2907 241.814 82.4427 243.009 83.296C244.203 84.1493 245.739 84.576 247.617 84.576C248.854 84.576 249.942 84.4053 250.881 84.064C251.862 83.7227 252.353 83.104 252.353 82.208C252.353 81.44 252.054 80.864 251.457 80.48C250.902 80.096 250.027 79.7973 248.833 79.584L242.049 78.368C239.062 77.8133 236.673 76.6827 234.881 74.976C233.089 73.2693 232.193 71.0293 232.193 68.256C232.193 66.0373 232.79 64.0747 233.985 62.368C235.179 60.6613 236.865 59.3387 239.041 58.4C241.259 57.4187 243.862 56.928 246.849 56.928C249.878 56.928 252.545 57.44 254.849 58.464C257.153 59.4453 258.987 60.8747 260.353 62.752C261.761 64.6293 262.571 66.848 262.785 69.408H252.289C252.161 68.0427 251.606 66.976 250.625 66.208C249.643 65.3973 248.406 64.992 246.913 64.992C245.633 64.992 244.609 65.184 243.841 65.568C243.073 65.9093 242.689 66.464 242.689 67.232C242.689 67.9573 242.966 68.4693 243.521 68.768C244.075 69.0667 244.886 69.3227 245.953 69.536L253.249 70.88C256.577 71.4773 259.094 72.5867 260.801 74.208C262.55 75.7867 263.425 77.8133 263.425 80.288ZM289.125 77.216V57.568H300.069V92H290.021V88.288C289.082 89.568 287.738 90.6133 285.989 91.424C284.282 92.2347 282.426 92.64 280.421 92.64C278.16 92.64 276.112 92.1707 274.277 91.232C272.442 90.2507 270.992 88.7787 269.925 86.816C268.901 84.8107 268.389 82.2933 268.389 79.264V57.568H279.333V77.216C279.333 79.0933 279.76 80.5013 280.613 81.44C281.509 82.3787 282.725 82.848 284.261 82.848C284.986 82.848 285.712 82.656 286.437 82.272C287.205 81.8453 287.845 81.2267 288.357 80.416C288.869 79.5627 289.125 78.496 289.125 77.216ZM327.369 92V88.672C326.174 90.0373 324.788 91.04 323.209 91.68C321.63 92.32 319.732 92.64 317.513 92.64C313.929 92.64 311.028 91.6587 308.809 89.696C306.633 87.6907 305.545 85.0667 305.545 81.824C305.545 78.4533 306.868 75.8933 309.513 74.144C312.158 72.352 315.934 71.456 320.841 71.456C321.78 71.456 322.676 71.4987 323.529 71.584C324.382 71.6267 325.172 71.712 325.897 71.84V70.176C325.897 68.6827 325.47 67.5307 324.617 66.72C323.806 65.9093 322.633 65.504 321.097 65.504C319.604 65.504 318.409 65.9093 317.513 66.72C316.66 67.5307 316.126 68.6827 315.913 70.176H306.057C306.27 67.488 307.038 65.1627 308.361 63.2C309.684 61.1947 311.433 59.6587 313.609 58.592C315.828 57.4827 318.345 56.928 321.161 56.928C325.897 56.928 329.588 58.144 332.233 60.576C334.878 63.008 336.201 66.4 336.201 70.752V92H327.369ZM315.849 81.504C315.849 82.6133 316.212 83.488 316.937 84.128C317.705 84.768 318.75 85.088 320.073 85.088C321.908 85.088 323.337 84.6827 324.361 83.872C325.385 83.0613 325.897 81.952 325.897 80.544V78.368C325.086 78.1973 324.34 78.0907 323.657 78.048C322.974 77.9627 322.27 77.92 321.545 77.92C319.71 77.92 318.302 78.2187 317.321 78.816C316.34 79.4133 315.849 80.3093 315.849 81.504ZM354.862 85.344C354.862 87.392 354.222 89.0773 352.942 90.4C351.662 91.68 349.998 92.32 347.95 92.32C345.902 92.32 344.216 91.68 342.894 90.4C341.614 89.0773 340.974 87.392 340.974 85.344C340.974 83.2533 341.614 81.568 342.894 80.288C344.216 78.9653 345.902 78.304 347.95 78.304C349.998 78.304 351.662 78.9653 352.942 80.288C354.222 81.568 354.862 83.2533 354.862 85.344Z" fill="white"/>
</svg>
